<?xml version="1.0" encoding="utf-8" standalone="no"?>
<!DOCTYPE svg PUBLIC "-//W3C//DTD SVG 1.1//EN"
  "http://www.w3.org/Graphics/SVG/1.1/DTD/svg11.dtd">
<svg height="216pt" version="1.1" viewBox="0 0 288 216" width="288pt" xmlns="http://www.w3.org/2000/svg" xmlns:xlink="http://www.w3.org/1999/xlink">
 <metadata>
  <rdf:RDF xmlns:cc="http://creativecommons.org/ns#" xmlns:dc="http://purl.org/dc/elements/1.1/" xmlns:rdf="http://www.w3.org/1999/02/22-rdf-syntax-ns#">
   <cc:Work>
    <dc:type rdf:resource="http://purl.org/dc/dcmitype/StillImage"/>
    <dc:date>2022-07-18T16:28:42.454381</dc:date>
    <dc:format>image/svg+xml</dc:format>
    <dc:creator>
     <cc:Agent>
      <dc:title>Matplotlib v3.4.3, https://matplotlib.org/</dc:title>
     </cc:Agent>
    </dc:creator>
   </cc:Work>
  </rdf:RDF>
 </metadata>
 <defs>
  <style type="text/css">*{stroke-linecap:butt;stroke-linejoin:round;}</style>
 </defs>
 <g id="figure_1">
  <g id="patch_1">
   <path d="M 0 216 
L 288 216 
L 288 0 
L 0 0 
z
" style="fill:none;"/>
  </g>
  <g id="axes_1">
   <g id="patch_2">
    <path d="M 38.55 174.2 
L 269.2625 174.2 
L 269.2625 10.8 
L 38.55 10.8 
z
" style="fill:#ffffff;"/>
   </g>
   <g id="PolyCollection_1">
    <defs>
     <path d="M 38.55 -41.8 
L 38.55 -45.944484 
L 40.880429 -45.667412 
L 43.210859 -45.434065 
L 45.541288 -45.240872 
L 47.871717 -45.084502 
L 50.202146 -44.961939 
L 52.532576 -44.870521 
L 54.863005 -44.807946 
L 57.193434 -44.77228 
L 59.523864 -44.761932 
L 61.854293 -44.775642 
L 64.184722 -44.812456 
L 66.515152 -44.871707 
L 68.845581 -44.952998 
L 71.17601 -45.056191 
L 73.506439 -45.181386 
L 75.836869 -45.328913 
L 78.167298 -45.499304 
L 80.497727 -45.693253 
L 82.828157 -45.911557 
L 85.158586 -46.155029 
L 87.489015 -46.424373 
L 89.819444 -46.720035 
L 92.149874 -47.042018 
L 94.480303 -47.389686 
L 96.810732 -47.761568 
L 99.141162 -48.155186 
L 101.471591 -48.566956 
L 103.80202 -48.99217 
L 106.132449 -49.425103 
L 108.462879 -49.859259 
L 110.793308 -50.287732 
L 113.123737 -50.70367 
L 115.454167 -51.100773 
L 117.784596 -51.473764 
L 120.115025 -51.818763 
L 122.445455 -52.133501 
L 124.775884 -52.417365 
L 127.106313 -52.671255 
L 129.436742 -52.897293 
L 131.767172 -53.09844 
L 134.097601 -53.278082 
L 136.42803 -53.439628 
L 138.75846 -53.586184 
L 141.088889 -53.720334 
L 143.419318 -53.844022 
L 145.749747 -53.958567 
L 148.080177 -54.064765 
L 150.410606 -54.163085 
L 152.741035 -54.253902 
L 155.071465 -54.33776 
L 157.401894 -54.415606 
L 159.732323 -54.488985 
L 162.062753 -54.560149 
L 164.393182 -54.632093 
L 166.723611 -54.708491 
L 169.05404 -54.79355 
L 171.38447 -54.891806 
L 173.714899 -55.007864 
L 176.045328 -55.146121 
L 178.375758 -55.310482 
L 180.706187 -55.504084 
L 183.036616 -55.729037 
L 185.367045 -55.98619 
L 187.697475 -56.274922 
L 190.027904 -56.592967 
L 192.358333 -56.936273 
L 194.688763 -57.298909 
L 197.019192 -57.673037 
L 199.349621 -58.048948 
L 201.680051 -58.415206 
L 204.01048 -58.758888 
L 206.340909 -59.065954 
L 208.671338 -59.321735 
L 211.001768 -59.511556 
L 213.332197 -59.62145 
L 215.662626 -59.638956 
L 217.993056 -59.553928 
L 220.323485 -59.359295 
L 222.653914 -59.0517 
L 224.984343 -58.631933 
L 227.314773 -58.105085 
L 229.645202 -57.480407 
L 231.975631 -56.77084 
L 234.306061 -55.99227 
L 236.63649 -55.162577 
L 238.966919 -54.300576 
L 241.297348 -53.424952 
L 243.627778 -52.553306 
L 245.958207 -51.70138 
L 248.288636 -50.882505 
L 250.619066 -50.10731 
L 252.949495 -49.383646 
L 255.279924 -48.716712 
L 257.610354 -48.109323 
L 259.940783 -47.562267 
L 262.271212 -47.074707 
L 264.601641 -46.644582 
L 266.932071 -46.268983 
L 269.2625 -45.944484 
L 269.2625 -41.8 
L 269.2625 -41.8 
L 266.932071 -41.8 
L 264.601641 -41.8 
L 262.271212 -41.8 
L 259.940783 -41.8 
L 257.610354 -41.8 
L 255.279924 -41.8 
L 252.949495 -41.8 
L 250.619066 -41.8 
L 248.288636 -41.8 
L 245.958207 -41.8 
L 243.627778 -41.8 
L 241.297348 -41.8 
L 238.966919 -41.8 
L 236.63649 -41.8 
L 234.306061 -41.8 
L 231.975631 -41.8 
L 229.645202 -41.8 
L 227.314773 -41.8 
L 224.984343 -41.8 
L 222.653914 -41.8 
L 220.323485 -41.8 
L 217.993056 -41.8 
L 215.662626 -41.8 
L 213.332197 -41.8 
L 211.001768 -41.8 
L 208.671338 -41.8 
L 206.340909 -41.8 
L 204.01048 -41.8 
L 201.680051 -41.8 
L 199.349621 -41.8 
L 197.019192 -41.8 
L 194.688763 -41.8 
L 192.358333 -41.8 
L 190.027904 -41.8 
L 187.697475 -41.8 
L 185.367045 -41.8 
L 183.036616 -41.8 
L 180.706187 -41.8 
L 178.375758 -41.8 
L 176.045328 -41.8 
L 173.714899 -41.8 
L 171.38447 -41.8 
L 169.05404 -41.8 
L 166.723611 -41.8 
L 164.393182 -41.8 
L 162.062753 -41.8 
L 159.732323 -41.8 
L 157.401894 -41.8 
L 155.071465 -41.8 
L 152.741035 -41.8 
L 150.410606 -41.8 
L 148.080177 -41.8 
L 145.749747 -41.8 
L 143.419318 -41.8 
L 141.088889 -41.8 
L 138.75846 -41.8 
L 136.42803 -41.8 
L 134.097601 -41.8 
L 131.767172 -41.8 
L 129.436742 -41.8 
L 127.106313 -41.8 
L 124.775884 -41.8 
L 122.445455 -41.8 
L 120.115025 -41.8 
L 117.784596 -41.8 
L 115.454167 -41.8 
L 113.123737 -41.8 
L 110.793308 -41.8 
L 108.462879 -41.8 
L 106.132449 -41.8 
L 103.80202 -41.8 
L 101.471591 -41.8 
L 99.141162 -41.8 
L 96.810732 -41.8 
L 94.480303 -41.8 
L 92.149874 -41.8 
L 89.819444 -41.8 
L 87.489015 -41.8 
L 85.158586 -41.8 
L 82.828157 -41.8 
L 80.497727 -41.8 
L 78.167298 -41.8 
L 75.836869 -41.8 
L 73.506439 -41.8 
L 71.17601 -41.8 
L 68.845581 -41.8 
L 66.515152 -41.8 
L 64.184722 -41.8 
L 61.854293 -41.8 
L 59.523864 -41.8 
L 57.193434 -41.8 
L 54.863005 -41.8 
L 52.532576 -41.8 
L 50.202146 -41.8 
L 47.871717 -41.8 
L 45.541288 -41.8 
L 43.210859 -41.8 
L 40.880429 -41.8 
L 38.55 -41.8 
z
" id="m95bd225cc0" style="stroke:#0d0887;stroke-opacity:0.5;"/>
    </defs>
    <g clip-path="url(#p6655677138)">
     <use style="fill:#0d0887;fill-opacity:0.5;stroke:#0d0887;stroke-opacity:0.5;" x="0" xlink:href="#m95bd225cc0" y="216"/>
    </g>
   </g>
   <g id="PolyCollection_2">
    <defs>
     <path d="M 38.55 -41.8 
L 38.55 -41.803351 
L 40.880429 -41.802392 
L 43.210859 -41.801785 
L 45.541288 -41.801395 
L 47.871717 -41.801144 
L 50.202146 -41.800984 
L 52.532576 -41.800889 
L 54.863005 -41.80084 
L 57.193434 -41.800831 
L 59.523864 -41.800858 
L 61.854293 -41.800922 
L 64.184722 -41.801027 
L 66.515152 -41.801182 
L 68.845581 -41.8014 
L 71.17601 -41.801702 
L 73.506439 -41.802116 
L 75.836869 -41.802681 
L 78.167298 -41.803453 
L 80.497727 -41.804508 
L 82.828157 -41.805952 
L 85.158586 -41.807933 
L 87.489015 -41.810653 
L 89.819444 -41.814389 
L 92.149874 -41.819518 
L 94.480303 -41.826543 
L 96.810732 -41.836131 
L 99.141162 -41.849146 
L 101.471591 -41.866687 
L 103.80202 -41.890118 
L 106.132449 -41.92109 
L 108.462879 -41.961551 
L 110.793308 -42.013742 
L 113.123737 -42.08019 
L 115.454167 -42.163696 
L 117.784596 -42.267352 
L 120.115025 -42.394573 
L 122.445455 -42.549172 
L 124.775884 -42.735462 
L 127.106313 -42.958367 
L 129.436742 -43.22351 
L 131.767172 -43.537233 
L 134.097601 -43.906507 
L 136.42803 -44.338666 
L 138.75846 -44.840958 
L 141.088889 -45.419879 
L 143.419318 -46.080341 
L 145.749747 -46.824768 
L 148.080177 -47.652282 
L 150.410606 -48.558205 
L 152.741035 -49.534084 
L 155.071465 -50.568426 
L 157.401894 -51.648174 
L 159.732323 -52.760785 
L 162.062753 -53.896609 
L 164.393182 -55.051169 
L 166.723611 -56.226939 
L 169.05404 -57.434346 
L 171.38447 -58.691879 
L 173.714899 -60.025345 
L 176.045328 -61.466391 
L 178.375758 -63.050392 
L 180.706187 -64.813691 
L 183.036616 -66.790052 
L 185.367045 -69.00603 
L 187.697475 -71.474957 
L 190.027904 -74.189346 
L 192.358333 -77.111901 
L 194.688763 -80.165971 
L 197.019192 -83.227223 
L 199.349621 -86.119376 
L 201.680051 -88.617627 
L 204.01048 -90.463369 
L 206.340909 -91.3923 
L 208.671338 -91.174724 
L 211.001768 -89.662069 
L 213.332197 -86.828983 
L 215.662626 -82.797976 
L 217.993056 -77.835665 
L 220.323485 -72.316947 
L 222.653914 -66.663681 
L 224.984343 -61.27369 
L 227.314773 -56.459493 
L 229.645202 -52.412286 
L 231.975631 -49.197081 
L 234.306061 -46.774241 
L 236.63649 -45.035689 
L 238.966919 -43.842814 
L 241.297348 -43.056696 
L 243.627778 -42.556709 
L 245.958207 -42.248218 
L 248.288636 -42.062569 
L 250.619066 -41.952987 
L 252.949495 -41.88918 
L 255.279924 -41.85232 
L 257.610354 -41.831075 
L 259.940783 -41.818795 
L 262.271212 -41.811641 
L 264.601641 -41.807421 
L 266.932071 -41.804893 
L 269.2625 -41.803351 
L 269.2625 -41.8 
L 269.2625 -41.8 
L 266.932071 -41.8 
L 264.601641 -41.8 
L 262.271212 -41.8 
L 259.940783 -41.8 
L 257.610354 -41.8 
L 255.279924 -41.8 
L 252.949495 -41.8 
L 250.619066 -41.8 
L 248.288636 -41.8 
L 245.958207 -41.8 
L 243.627778 -41.8 
L 241.297348 -41.8 
L 238.966919 -41.8 
L 236.63649 -41.8 
L 234.306061 -41.8 
L 231.975631 -41.8 
L 229.645202 -41.8 
L 227.314773 -41.8 
L 224.984343 -41.8 
L 222.653914 -41.8 
L 220.323485 -41.8 
L 217.993056 -41.8 
L 215.662626 -41.8 
L 213.332197 -41.8 
L 211.001768 -41.8 
L 208.671338 -41.8 
L 206.340909 -41.8 
L 204.01048 -41.8 
L 201.680051 -41.8 
L 199.349621 -41.8 
L 197.019192 -41.8 
L 194.688763 -41.8 
L 192.358333 -41.8 
L 190.027904 -41.8 
L 187.697475 -41.8 
L 185.367045 -41.8 
L 183.036616 -41.8 
L 180.706187 -41.8 
L 178.375758 -41.8 
L 176.045328 -41.8 
L 173.714899 -41.8 
L 171.38447 -41.8 
L 169.05404 -41.8 
L 166.723611 -41.8 
L 164.393182 -41.8 
L 162.062753 -41.8 
L 159.732323 -41.8 
L 157.401894 -41.8 
L 155.071465 -41.8 
L 152.741035 -41.8 
L 150.410606 -41.8 
L 148.080177 -41.8 
L 145.749747 -41.8 
L 143.419318 -41.8 
L 141.088889 -41.8 
L 138.75846 -41.8 
L 136.42803 -41.8 
L 134.097601 -41.8 
L 131.767172 -41.8 
L 129.436742 -41.8 
L 127.106313 -41.8 
L 124.775884 -41.8 
L 122.445455 -41.8 
L 120.115025 -41.8 
L 117.784596 -41.8 
L 115.454167 -41.8 
L 113.123737 -41.8 
L 110.793308 -41.8 
L 108.462879 -41.8 
L 106.132449 -41.8 
L 103.80202 -41.8 
L 101.471591 -41.8 
L 99.141162 -41.8 
L 96.810732 -41.8 
L 94.480303 -41.8 
L 92.149874 -41.8 
L 89.819444 -41.8 
L 87.489015 -41.8 
L 85.158586 -41.8 
L 82.828157 -41.8 
L 80.497727 -41.8 
L 78.167298 -41.8 
L 75.836869 -41.8 
L 73.506439 -41.8 
L 71.17601 -41.8 
L 68.845581 -41.8 
L 66.515152 -41.8 
L 64.184722 -41.8 
L 61.854293 -41.8 
L 59.523864 -41.8 
L 57.193434 -41.8 
L 54.863005 -41.8 
L 52.532576 -41.8 
L 50.202146 -41.8 
L 47.871717 -41.8 
L 45.541288 -41.8 
L 43.210859 -41.8 
L 40.880429 -41.8 
L 38.55 -41.8 
z
" id="m6f8e4d2e04" style="stroke:#9c179e;stroke-opacity:0.5;"/>
    </defs>
    <g clip-path="url(#p6655677138)">
     <use style="fill:#9c179e;fill-opacity:0.5;stroke:#9c179e;stroke-opacity:0.5;" x="0" xlink:href="#m6f8e4d2e04" y="216"/>
    </g>
   </g>
   <g id="PolyCollection_3">
    <defs>
     <path d="M 38.55 -41.8 
L 38.55 -41.800058 
L 40.880429 -41.800032 
L 43.210859 -41.800018 
L 45.541288 -41.800011 
L 47.871717 -41.800007 
L 50.202146 -41.800005 
L 52.532576 -41.800004 
L 54.863005 -41.800003 
L 57.193434 -41.800002 
L 59.523864 -41.800002 
L 61.854293 -41.800002 
L 64.184722 -41.800002 
L 66.515152 -41.800002 
L 68.845581 -41.800002 
L 71.17601 -41.800002 
L 73.506439 -41.800002 
L 75.836869 -41.800002 
L 78.167298 -41.800003 
L 80.497727 -41.800003 
L 82.828157 -41.800004 
L 85.158586 -41.800005 
L 87.489015 -41.800006 
L 89.819444 -41.800008 
L 92.149874 -41.800011 
L 94.480303 -41.800015 
L 96.810732 -41.80002 
L 99.141162 -41.800029 
L 101.471591 -41.800041 
L 103.80202 -41.80006 
L 106.132449 -41.800088 
L 108.462879 -41.80013 
L 110.793308 -41.800192 
L 113.123737 -41.800283 
L 115.454167 -41.800418 
L 117.784596 -41.800617 
L 120.115025 -41.800907 
L 122.445455 -41.801329 
L 124.775884 -41.801942 
L 127.106313 -41.802831 
L 129.436742 -41.804118 
L 131.767172 -41.80598 
L 134.097601 -41.80867 
L 136.42803 -41.812552 
L 138.75846 -41.818143 
L 141.088889 -41.826165 
L 143.419318 -41.837618 
L 145.749747 -41.853862 
L 148.080177 -41.876715 
L 150.410606 -41.90857 
L 152.741035 -41.952524 
L 155.071465 -42.01255 
L 157.401894 -42.093709 
L 159.732323 -42.202478 
L 162.062753 -42.347211 
L 164.393182 -42.53886 
L 166.723611 -42.792015 
L 169.05404 -43.126416 
L 171.38447 -43.56905 
L 173.714899 -44.156993 
L 176.045328 -44.941098 
L 178.375758 -45.990558 
L 180.706187 -47.398121 
L 183.036616 -49.285231 
L 185.367045 -51.805495 
L 187.697475 -55.143565 
L 190.027904 -59.504808 
L 192.358333 -65.089664 
L 194.688763 -72.046457 
L 197.019192 -80.399684 
L 199.349621 -89.959515 
L 201.680051 -100.233037 
L 204.01048 -110.375026 
L 206.340909 -119.226085 
L 208.671338 -125.475164 
L 211.001768 -127.942453 
L 213.332197 -125.9153 
L 215.662626 -119.415043 
L 217.993056 -109.268237 
L 220.323485 -96.923402 
L 222.653914 -84.068792 
L 224.984343 -72.202126 
L 227.314773 -62.318661 
L 229.645202 -54.811679 
L 231.975631 -49.570588 
L 234.306061 -46.184476 
L 236.63649 -44.147056 
L 238.966919 -42.997937 
L 241.297348 -42.38633 
L 243.627778 -42.076965 
L 245.958207 -41.927145 
L 248.288636 -41.857144 
L 250.619066 -41.825338 
L 252.949495 -41.811172 
L 255.279924 -41.804937 
L 257.610354 -41.802204 
L 259.940783 -41.801001 
L 262.271212 -41.800466 
L 264.601641 -41.800224 
L 266.932071 -41.800112 
L 269.2625 -41.800058 
L 269.2625 -41.8 
L 269.2625 -41.8 
L 266.932071 -41.8 
L 264.601641 -41.8 
L 262.271212 -41.8 
L 259.940783 -41.8 
L 257.610354 -41.8 
L 255.279924 -41.8 
L 252.949495 -41.8 
L 250.619066 -41.8 
L 248.288636 -41.8 
L 245.958207 -41.8 
L 243.627778 -41.8 
L 241.297348 -41.8 
L 238.966919 -41.8 
L 236.63649 -41.8 
L 234.306061 -41.8 
L 231.975631 -41.8 
L 229.645202 -41.8 
L 227.314773 -41.8 
L 224.984343 -41.8 
L 222.653914 -41.8 
L 220.323485 -41.8 
L 217.993056 -41.8 
L 215.662626 -41.8 
L 213.332197 -41.8 
L 211.001768 -41.8 
L 208.671338 -41.8 
L 206.340909 -41.8 
L 204.01048 -41.8 
L 201.680051 -41.8 
L 199.349621 -41.8 
L 197.019192 -41.8 
L 194.688763 -41.8 
L 192.358333 -41.8 
L 190.027904 -41.8 
L 187.697475 -41.8 
L 185.367045 -41.8 
L 183.036616 -41.8 
L 180.706187 -41.8 
L 178.375758 -41.8 
L 176.045328 -41.8 
L 173.714899 -41.8 
L 171.38447 -41.8 
L 169.05404 -41.8 
L 166.723611 -41.8 
L 164.393182 -41.8 
L 162.062753 -41.8 
L 159.732323 -41.8 
L 157.401894 -41.8 
L 155.071465 -41.8 
L 152.741035 -41.8 
L 150.410606 -41.8 
L 148.080177 -41.8 
L 145.749747 -41.8 
L 143.419318 -41.8 
L 141.088889 -41.8 
L 138.75846 -41.8 
L 136.42803 -41.8 
L 134.097601 -41.8 
L 131.767172 -41.8 
L 129.436742 -41.8 
L 127.106313 -41.8 
L 124.775884 -41.8 
L 122.445455 -41.8 
L 120.115025 -41.8 
L 117.784596 -41.8 
L 115.454167 -41.8 
L 113.123737 -41.8 
L 110.793308 -41.8 
L 108.462879 -41.8 
L 106.132449 -41.8 
L 103.80202 -41.8 
L 101.471591 -41.8 
L 99.141162 -41.8 
L 96.810732 -41.8 
L 94.480303 -41.8 
L 92.149874 -41.8 
L 89.819444 -41.8 
L 87.489015 -41.8 
L 85.158586 -41.8 
L 82.828157 -41.8 
L 80.497727 -41.8 
L 78.167298 -41.8 
L 75.836869 -41.8 
L 73.506439 -41.8 
L 71.17601 -41.8 
L 68.845581 -41.8 
L 66.515152 -41.8 
L 64.184722 -41.8 
L 61.854293 -41.8 
L 59.523864 -41.8 
L 57.193434 -41.8 
L 54.863005 -41.8 
L 52.532576 -41.8 
L 50.202146 -41.8 
L 47.871717 -41.8 
L 45.541288 -41.8 
L 43.210859 -41.8 
L 40.880429 -41.8 
L 38.55 -41.8 
z
" id="mf8feac5c76" style="stroke:#ed7953;stroke-opacity:0.5;"/>
    </defs>
    <g clip-path="url(#p6655677138)">
     <use style="fill:#ed7953;fill-opacity:0.5;stroke:#ed7953;stroke-opacity:0.5;" x="0" xlink:href="#mf8feac5c76" y="216"/>
    </g>
   </g>
   <g id="matplotlib.axis_1">
    <g id="xtick_1">
     <g id="line2d_1">
      <defs>
       <path d="M 0 0 
L 0 3.5 
" id="mcf76143c51" style="stroke:#000000;stroke-width:0.8;"/>
      </defs>
      <g>
       <use style="stroke:#000000;stroke-width:0.8;" x="38.55" xlink:href="#mcf76143c51" y="174.2"/>
      </g>
     </g>
     <g id="text_1">
      <!-- 0.0 -->
      <g transform="translate(30.598437 188.798438)scale(0.1 -0.1)">
       <defs>
        <path d="M 2034 4250 
Q 1547 4250 1301 3770 
Q 1056 3291 1056 2328 
Q 1056 1369 1301 889 
Q 1547 409 2034 409 
Q 2525 409 2770 889 
Q 3016 1369 3016 2328 
Q 3016 3291 2770 3770 
Q 2525 4250 2034 4250 
z
M 2034 4750 
Q 2819 4750 3233 4129 
Q 3647 3509 3647 2328 
Q 3647 1150 3233 529 
Q 2819 -91 2034 -91 
Q 1250 -91 836 529 
Q 422 1150 422 2328 
Q 422 3509 836 4129 
Q 1250 4750 2034 4750 
z
" id="DejaVuSans-30" transform="scale(0.015625)"/>
        <path d="M 684 794 
L 1344 794 
L 1344 0 
L 684 0 
L 684 794 
z
" id="DejaVuSans-2e" transform="scale(0.015625)"/>
       </defs>
       <use xlink:href="#DejaVuSans-30"/>
       <use x="63.623047" xlink:href="#DejaVuSans-2e"/>
       <use x="95.410156" xlink:href="#DejaVuSans-30"/>
      </g>
     </g>
    </g>
    <g id="xtick_2">
     <g id="line2d_2">
      <g>
       <use style="stroke:#000000;stroke-width:0.8;" x="84.6925" xlink:href="#mcf76143c51" y="174.2"/>
      </g>
     </g>
     <g id="text_2">
      <!-- 0.2 -->
      <g transform="translate(76.740938 188.798438)scale(0.1 -0.1)">
       <defs>
        <path d="M 1228 531 
L 3431 531 
L 3431 0 
L 469 0 
L 469 531 
Q 828 903 1448 1529 
Q 2069 2156 2228 2338 
Q 2531 2678 2651 2914 
Q 2772 3150 2772 3378 
Q 2772 3750 2511 3984 
Q 2250 4219 1831 4219 
Q 1534 4219 1204 4116 
Q 875 4013 500 3803 
L 500 4441 
Q 881 4594 1212 4672 
Q 1544 4750 1819 4750 
Q 2544 4750 2975 4387 
Q 3406 4025 3406 3419 
Q 3406 3131 3298 2873 
Q 3191 2616 2906 2266 
Q 2828 2175 2409 1742 
Q 1991 1309 1228 531 
z
" id="DejaVuSans-32" transform="scale(0.015625)"/>
       </defs>
       <use xlink:href="#DejaVuSans-30"/>
       <use x="63.623047" xlink:href="#DejaVuSans-2e"/>
       <use x="95.410156" xlink:href="#DejaVuSans-32"/>
      </g>
     </g>
    </g>
    <g id="xtick_3">
     <g id="line2d_3">
      <g>
       <use style="stroke:#000000;stroke-width:0.8;" x="130.835" xlink:href="#mcf76143c51" y="174.2"/>
      </g>
     </g>
     <g id="text_3">
      <!-- 0.4 -->
      <g transform="translate(122.883438 188.798438)scale(0.1 -0.1)">
       <defs>
        <path d="M 2419 4116 
L 825 1625 
L 2419 1625 
L 2419 4116 
z
M 2253 4666 
L 3047 4666 
L 3047 1625 
L 3713 1625 
L 3713 1100 
L 3047 1100 
L 3047 0 
L 2419 0 
L 2419 1100 
L 313 1100 
L 313 1709 
L 2253 4666 
z
" id="DejaVuSans-34" transform="scale(0.015625)"/>
       </defs>
       <use xlink:href="#DejaVuSans-30"/>
       <use x="63.623047" xlink:href="#DejaVuSans-2e"/>
       <use x="95.410156" xlink:href="#DejaVuSans-34"/>
      </g>
     </g>
    </g>
    <g id="xtick_4">
     <g id="line2d_4">
      <g>
       <use style="stroke:#000000;stroke-width:0.8;" x="176.9775" xlink:href="#mcf76143c51" y="174.2"/>
      </g>
     </g>
     <g id="text_4">
      <!-- 0.6 -->
      <g transform="translate(169.025938 188.798438)scale(0.1 -0.1)">
       <defs>
        <path d="M 2113 2584 
Q 1688 2584 1439 2293 
Q 1191 2003 1191 1497 
Q 1191 994 1439 701 
Q 1688 409 2113 409 
Q 2538 409 2786 701 
Q 3034 994 3034 1497 
Q 3034 2003 2786 2293 
Q 2538 2584 2113 2584 
z
M 3366 4563 
L 3366 3988 
Q 3128 4100 2886 4159 
Q 2644 4219 2406 4219 
Q 1781 4219 1451 3797 
Q 1122 3375 1075 2522 
Q 1259 2794 1537 2939 
Q 1816 3084 2150 3084 
Q 2853 3084 3261 2657 
Q 3669 2231 3669 1497 
Q 3669 778 3244 343 
Q 2819 -91 2113 -91 
Q 1303 -91 875 529 
Q 447 1150 447 2328 
Q 447 3434 972 4092 
Q 1497 4750 2381 4750 
Q 2619 4750 2861 4703 
Q 3103 4656 3366 4563 
z
" id="DejaVuSans-36" transform="scale(0.015625)"/>
       </defs>
       <use xlink:href="#DejaVuSans-30"/>
       <use x="63.623047" xlink:href="#DejaVuSans-2e"/>
       <use x="95.410156" xlink:href="#DejaVuSans-36"/>
      </g>
     </g>
    </g>
    <g id="xtick_5">
     <g id="line2d_5">
      <g>
       <use style="stroke:#000000;stroke-width:0.8;" x="223.12" xlink:href="#mcf76143c51" y="174.2"/>
      </g>
     </g>
     <g id="text_5">
      <!-- 0.8 -->
      <g transform="translate(215.168438 188.798438)scale(0.1 -0.1)">
       <defs>
        <path d="M 2034 2216 
Q 1584 2216 1326 1975 
Q 1069 1734 1069 1313 
Q 1069 891 1326 650 
Q 1584 409 2034 409 
Q 2484 409 2743 651 
Q 3003 894 3003 1313 
Q 3003 1734 2745 1975 
Q 2488 2216 2034 2216 
z
M 1403 2484 
Q 997 2584 770 2862 
Q 544 3141 544 3541 
Q 544 4100 942 4425 
Q 1341 4750 2034 4750 
Q 2731 4750 3128 4425 
Q 3525 4100 3525 3541 
Q 3525 3141 3298 2862 
Q 3072 2584 2669 2484 
Q 3125 2378 3379 2068 
Q 3634 1759 3634 1313 
Q 3634 634 3220 271 
Q 2806 -91 2034 -91 
Q 1263 -91 848 271 
Q 434 634 434 1313 
Q 434 1759 690 2068 
Q 947 2378 1403 2484 
z
M 1172 3481 
Q 1172 3119 1398 2916 
Q 1625 2713 2034 2713 
Q 2441 2713 2670 2916 
Q 2900 3119 2900 3481 
Q 2900 3844 2670 4047 
Q 2441 4250 2034 4250 
Q 1625 4250 1398 4047 
Q 1172 3844 1172 3481 
z
" id="DejaVuSans-38" transform="scale(0.015625)"/>
       </defs>
       <use xlink:href="#DejaVuSans-30"/>
       <use x="63.623047" xlink:href="#DejaVuSans-2e"/>
       <use x="95.410156" xlink:href="#DejaVuSans-38"/>
      </g>
     </g>
    </g>
    <g id="xtick_6">
     <g id="line2d_6">
      <g>
       <use style="stroke:#000000;stroke-width:0.8;" x="269.2625" xlink:href="#mcf76143c51" y="174.2"/>
      </g>
     </g>
     <g id="text_6">
      <!-- 1.0 -->
      <g transform="translate(261.310938 188.798438)scale(0.1 -0.1)">
       <defs>
        <path d="M 794 531 
L 1825 531 
L 1825 4091 
L 703 3866 
L 703 4441 
L 1819 4666 
L 2450 4666 
L 2450 531 
L 3481 531 
L 3481 0 
L 794 0 
L 794 531 
z
" id="DejaVuSans-31" transform="scale(0.015625)"/>
       </defs>
       <use xlink:href="#DejaVuSans-31"/>
       <use x="63.623047" xlink:href="#DejaVuSans-2e"/>
       <use x="95.410156" xlink:href="#DejaVuSans-30"/>
      </g>
     </g>
    </g>
    <g id="text_7">
     <!-- s -->
     <g transform="translate(151.301562 202.476562)scale(0.1 -0.1)">
      <defs>
       <path d="M 2834 3397 
L 2834 2853 
Q 2591 2978 2328 3040 
Q 2066 3103 1784 3103 
Q 1356 3103 1142 2972 
Q 928 2841 928 2578 
Q 928 2378 1081 2264 
Q 1234 2150 1697 2047 
L 1894 2003 
Q 2506 1872 2764 1633 
Q 3022 1394 3022 966 
Q 3022 478 2636 193 
Q 2250 -91 1575 -91 
Q 1294 -91 989 -36 
Q 684 19 347 128 
L 347 722 
Q 666 556 975 473 
Q 1284 391 1588 391 
Q 1994 391 2212 530 
Q 2431 669 2431 922 
Q 2431 1156 2273 1281 
Q 2116 1406 1581 1522 
L 1381 1569 
Q 847 1681 609 1914 
Q 372 2147 372 2553 
Q 372 3047 722 3315 
Q 1072 3584 1716 3584 
Q 2034 3584 2315 3537 
Q 2597 3491 2834 3397 
z
" id="DejaVuSans-73" transform="scale(0.015625)"/>
      </defs>
      <use xlink:href="#DejaVuSans-73"/>
     </g>
    </g>
   </g>
   <g id="matplotlib.axis_2">
    <g id="ytick_1">
     <g id="line2d_7">
      <defs>
       <path d="M 0 0 
L -3.5 0 
" id="mc6d5400132" style="stroke:#000000;stroke-width:0.8;"/>
      </defs>
      <g>
       <use style="stroke:#000000;stroke-width:0.8;" x="38.55" xlink:href="#mc6d5400132" y="174.2"/>
      </g>
     </g>
     <g id="text_8">
      <!-- 0 -->
      <g transform="translate(25.1875 177.999219)scale(0.1 -0.1)">
       <use xlink:href="#DejaVuSans-30"/>
      </g>
     </g>
    </g>
    <g id="text_9">
     <!-- decoded p(s|r) -->
     <g transform="translate(18.829687 128.99375)rotate(-90)scale(0.1 -0.1)">
      <defs>
       <path d="M 2906 2969 
L 2906 4863 
L 3481 4863 
L 3481 0 
L 2906 0 
L 2906 525 
Q 2725 213 2448 61 
Q 2172 -91 1784 -91 
Q 1150 -91 751 415 
Q 353 922 353 1747 
Q 353 2572 751 3078 
Q 1150 3584 1784 3584 
Q 2172 3584 2448 3432 
Q 2725 3281 2906 2969 
z
M 947 1747 
Q 947 1113 1208 752 
Q 1469 391 1925 391 
Q 2381 391 2643 752 
Q 2906 1113 2906 1747 
Q 2906 2381 2643 2742 
Q 2381 3103 1925 3103 
Q 1469 3103 1208 2742 
Q 947 2381 947 1747 
z
" id="DejaVuSans-64" transform="scale(0.015625)"/>
       <path d="M 3597 1894 
L 3597 1613 
L 953 1613 
Q 991 1019 1311 708 
Q 1631 397 2203 397 
Q 2534 397 2845 478 
Q 3156 559 3463 722 
L 3463 178 
Q 3153 47 2828 -22 
Q 2503 -91 2169 -91 
Q 1331 -91 842 396 
Q 353 884 353 1716 
Q 353 2575 817 3079 
Q 1281 3584 2069 3584 
Q 2775 3584 3186 3129 
Q 3597 2675 3597 1894 
z
M 3022 2063 
Q 3016 2534 2758 2815 
Q 2500 3097 2075 3097 
Q 1594 3097 1305 2825 
Q 1016 2553 972 2059 
L 3022 2063 
z
" id="DejaVuSans-65" transform="scale(0.015625)"/>
       <path d="M 3122 3366 
L 3122 2828 
Q 2878 2963 2633 3030 
Q 2388 3097 2138 3097 
Q 1578 3097 1268 2742 
Q 959 2388 959 1747 
Q 959 1106 1268 751 
Q 1578 397 2138 397 
Q 2388 397 2633 464 
Q 2878 531 3122 666 
L 3122 134 
Q 2881 22 2623 -34 
Q 2366 -91 2075 -91 
Q 1284 -91 818 406 
Q 353 903 353 1747 
Q 353 2603 823 3093 
Q 1294 3584 2113 3584 
Q 2378 3584 2631 3529 
Q 2884 3475 3122 3366 
z
" id="DejaVuSans-63" transform="scale(0.015625)"/>
       <path d="M 1959 3097 
Q 1497 3097 1228 2736 
Q 959 2375 959 1747 
Q 959 1119 1226 758 
Q 1494 397 1959 397 
Q 2419 397 2687 759 
Q 2956 1122 2956 1747 
Q 2956 2369 2687 2733 
Q 2419 3097 1959 3097 
z
M 1959 3584 
Q 2709 3584 3137 3096 
Q 3566 2609 3566 1747 
Q 3566 888 3137 398 
Q 2709 -91 1959 -91 
Q 1206 -91 779 398 
Q 353 888 353 1747 
Q 353 2609 779 3096 
Q 1206 3584 1959 3584 
z
" id="DejaVuSans-6f" transform="scale(0.015625)"/>
       <path id="DejaVuSans-20" transform="scale(0.015625)"/>
       <path d="M 1159 525 
L 1159 -1331 
L 581 -1331 
L 581 3500 
L 1159 3500 
L 1159 2969 
Q 1341 3281 1617 3432 
Q 1894 3584 2278 3584 
Q 2916 3584 3314 3078 
Q 3713 2572 3713 1747 
Q 3713 922 3314 415 
Q 2916 -91 2278 -91 
Q 1894 -91 1617 61 
Q 1341 213 1159 525 
z
M 3116 1747 
Q 3116 2381 2855 2742 
Q 2594 3103 2138 3103 
Q 1681 3103 1420 2742 
Q 1159 2381 1159 1747 
Q 1159 1113 1420 752 
Q 1681 391 2138 391 
Q 2594 391 2855 752 
Q 3116 1113 3116 1747 
z
" id="DejaVuSans-70" transform="scale(0.015625)"/>
       <path d="M 1984 4856 
Q 1566 4138 1362 3434 
Q 1159 2731 1159 2009 
Q 1159 1288 1364 580 
Q 1569 -128 1984 -844 
L 1484 -844 
Q 1016 -109 783 600 
Q 550 1309 550 2009 
Q 550 2706 781 3412 
Q 1013 4119 1484 4856 
L 1984 4856 
z
" id="DejaVuSans-28" transform="scale(0.015625)"/>
       <path d="M 1344 4891 
L 1344 -1509 
L 813 -1509 
L 813 4891 
L 1344 4891 
z
" id="DejaVuSans-7c" transform="scale(0.015625)"/>
       <path d="M 2631 2963 
Q 2534 3019 2420 3045 
Q 2306 3072 2169 3072 
Q 1681 3072 1420 2755 
Q 1159 2438 1159 1844 
L 1159 0 
L 581 0 
L 581 3500 
L 1159 3500 
L 1159 2956 
Q 1341 3275 1631 3429 
Q 1922 3584 2338 3584 
Q 2397 3584 2469 3576 
Q 2541 3569 2628 3553 
L 2631 2963 
z
" id="DejaVuSans-72" transform="scale(0.015625)"/>
       <path d="M 513 4856 
L 1013 4856 
Q 1481 4119 1714 3412 
Q 1947 2706 1947 2009 
Q 1947 1309 1714 600 
Q 1481 -109 1013 -844 
L 513 -844 
Q 928 -128 1133 580 
Q 1338 1288 1338 2009 
Q 1338 2731 1133 3434 
Q 928 4138 513 4856 
z
" id="DejaVuSans-29" transform="scale(0.015625)"/>
      </defs>
      <use xlink:href="#DejaVuSans-64"/>
      <use x="63.476562" xlink:href="#DejaVuSans-65"/>
      <use x="125" xlink:href="#DejaVuSans-63"/>
      <use x="179.980469" xlink:href="#DejaVuSans-6f"/>
      <use x="241.162109" xlink:href="#DejaVuSans-64"/>
      <use x="304.638672" xlink:href="#DejaVuSans-65"/>
      <use x="366.162109" xlink:href="#DejaVuSans-64"/>
      <use x="429.638672" xlink:href="#DejaVuSans-20"/>
      <use x="461.425781" xlink:href="#DejaVuSans-70"/>
      <use x="524.902344" xlink:href="#DejaVuSans-28"/>
      <use x="563.916016" xlink:href="#DejaVuSans-73"/>
      <use x="616.015625" xlink:href="#DejaVuSans-7c"/>
      <use x="649.707031" xlink:href="#DejaVuSans-72"/>
      <use x="690.820312" xlink:href="#DejaVuSans-29"/>
     </g>
    </g>
   </g>
   <g id="LineCollection_1">
    <path clip-path="url(#p6655677138)" d="M 223.058257 181.593665 
L 223.058257 18.933032 
" style="fill:none;stroke:#000000;stroke-dasharray:5.55,2.4;stroke-dashoffset:0;stroke-width:1.5;"/>
   </g>
   <g id="line2d_8">
    <path clip-path="url(#p6655677138)" d="M 38.55 174.2 
L 40.880429 174.2 
L 43.210859 174.2 
L 45.541288 174.2 
L 47.871717 174.2 
L 50.202146 174.2 
L 52.532576 174.2 
L 54.863005 174.2 
L 57.193434 174.2 
L 59.523864 174.2 
L 61.854293 174.2 
L 64.184722 174.2 
L 66.515152 174.2 
L 68.845581 174.2 
L 71.17601 174.2 
L 73.506439 174.2 
L 75.836869 174.2 
L 78.167298 174.2 
L 80.497727 174.2 
L 82.828157 174.2 
L 85.158586 174.2 
L 87.489015 174.2 
L 89.819444 174.2 
L 92.149874 174.2 
L 94.480303 174.2 
L 96.810732 174.2 
L 99.141162 174.2 
L 101.471591 174.2 
L 103.80202 174.2 
L 106.132449 174.2 
L 108.462879 174.2 
L 110.793308 174.2 
L 113.123737 174.2 
L 115.454167 174.2 
L 117.784596 174.2 
L 120.115025 174.2 
L 122.445455 174.2 
L 124.775884 174.2 
L 127.106313 174.2 
L 129.436742 174.2 
L 131.767172 174.2 
L 134.097601 174.2 
L 136.42803 174.2 
L 138.75846 174.2 
L 141.088889 174.2 
L 143.419318 174.2 
L 145.749747 174.2 
L 148.080177 174.2 
L 150.410606 174.2 
L 152.741035 174.2 
L 155.071465 174.2 
L 157.401894 174.2 
L 159.732323 174.2 
L 162.062753 174.2 
L 164.393182 174.2 
L 166.723611 174.2 
L 169.05404 174.2 
L 171.38447 174.199999 
L 173.714899 174.199994 
L 176.045328 174.19997 
L 178.375758 174.199861 
L 180.706187 174.199364 
L 183.036616 174.19721 
L 185.367045 174.188383 
L 187.697475 174.154713 
L 190.027904 174.036674 
L 192.358333 173.660944 
L 194.688763 172.587087 
L 197.019192 169.859556 
L 199.349621 163.763102 
L 201.680051 151.893812 
L 204.01048 132.010419 
L 206.340909 103.847881 
L 208.671338 71.133549 
L 211.001768 42.011919 
L 213.332197 26.326697 
L 215.662626 30.481262 
L 217.993056 53.321646 
L 220.323485 86.541377 
L 222.653914 119.555003 
L 224.984343 144.969911 
L 227.314773 160.785174 
L 229.645202 168.907003 
L 231.975631 172.396349 
L 234.306061 173.665337 
L 236.63649 174.060747 
L 238.966919 174.167734 
L 241.297348 174.19325 
L 243.627778 174.198704 
L 245.958207 174.199768 
L 248.288636 174.19996 
L 250.619066 174.199993 
L 252.949495 174.199999 
L 255.279924 174.2 
L 257.610354 174.2 
L 259.940783 174.2 
L 262.271212 174.2 
L 264.601641 174.2 
L 266.932071 174.2 
L 269.2625 174.2 
" style="fill:none;stroke:#000000;stroke-linecap:square;stroke-width:1.5;"/>
   </g>
   <g id="patch_3">
    <path d="M 38.55 174.2 
L 38.55 10.8 
" style="fill:none;stroke:#000000;stroke-linecap:square;stroke-linejoin:miter;stroke-width:0.8;"/>
   </g>
   <g id="patch_4">
    <path d="M 269.2625 174.2 
L 269.2625 10.8 
" style="fill:none;stroke:#000000;stroke-linecap:square;stroke-linejoin:miter;stroke-width:0.8;"/>
   </g>
   <g id="patch_5">
    <path d="M 38.55 174.2 
L 269.2625 174.2 
" style="fill:none;stroke:#000000;stroke-linecap:square;stroke-linejoin:miter;stroke-width:0.8;"/>
   </g>
   <g id="patch_6">
    <path d="M 38.55 10.8 
L 269.2625 10.8 
" style="fill:none;stroke:#000000;stroke-linecap:square;stroke-linejoin:miter;stroke-width:0.8;"/>
   </g>
   <g id="legend_1">
    <g id="patch_7">
     <path d="M 45.55 92.5125 
L 130.59375 92.5125 
Q 132.59375 92.5125 132.59375 90.5125 
L 132.59375 17.8 
Q 132.59375 15.8 130.59375 15.8 
L 45.55 15.8 
Q 43.55 15.8 43.55 17.8 
L 43.55 90.5125 
Q 43.55 92.5125 45.55 92.5125 
z
" style="fill:#ffffff;opacity:0.8;stroke:#cccccc;stroke-linejoin:miter;"/>
    </g>
    <g id="line2d_9">
     <path d="M 47.55 23.942188 
L 67.55 23.942188 
" style="fill:none;stroke:#000000;stroke-linecap:square;stroke-width:1.5;"/>
    </g>
    <g id="line2d_10"/>
    <g id="text_10">
     <!-- ideal p(s|I) -->
     <g transform="translate(75.55 27.442188)scale(0.1 -0.1)">
      <defs>
       <path d="M 603 3500 
L 1178 3500 
L 1178 0 
L 603 0 
L 603 3500 
z
M 603 4863 
L 1178 4863 
L 1178 4134 
L 603 4134 
L 603 4863 
z
" id="DejaVuSans-69" transform="scale(0.015625)"/>
       <path d="M 2194 1759 
Q 1497 1759 1228 1600 
Q 959 1441 959 1056 
Q 959 750 1161 570 
Q 1363 391 1709 391 
Q 2188 391 2477 730 
Q 2766 1069 2766 1631 
L 2766 1759 
L 2194 1759 
z
M 3341 1997 
L 3341 0 
L 2766 0 
L 2766 531 
Q 2569 213 2275 61 
Q 1981 -91 1556 -91 
Q 1019 -91 701 211 
Q 384 513 384 1019 
Q 384 1609 779 1909 
Q 1175 2209 1959 2209 
L 2766 2209 
L 2766 2266 
Q 2766 2663 2505 2880 
Q 2244 3097 1772 3097 
Q 1472 3097 1187 3025 
Q 903 2953 641 2809 
L 641 3341 
Q 956 3463 1253 3523 
Q 1550 3584 1831 3584 
Q 2591 3584 2966 3190 
Q 3341 2797 3341 1997 
z
" id="DejaVuSans-61" transform="scale(0.015625)"/>
       <path d="M 603 4863 
L 1178 4863 
L 1178 0 
L 603 0 
L 603 4863 
z
" id="DejaVuSans-6c" transform="scale(0.015625)"/>
       <path d="M 628 4666 
L 1259 4666 
L 1259 0 
L 628 0 
L 628 4666 
z
" id="DejaVuSans-49" transform="scale(0.015625)"/>
      </defs>
      <use xlink:href="#DejaVuSans-69"/>
      <use x="27.783203" xlink:href="#DejaVuSans-64"/>
      <use x="91.259766" xlink:href="#DejaVuSans-65"/>
      <use x="152.783203" xlink:href="#DejaVuSans-61"/>
      <use x="214.0625" xlink:href="#DejaVuSans-6c"/>
      <use x="241.845703" xlink:href="#DejaVuSans-20"/>
      <use x="273.632812" xlink:href="#DejaVuSans-70"/>
      <use x="337.109375" xlink:href="#DejaVuSans-28"/>
      <use x="376.123047" xlink:href="#DejaVuSans-73"/>
      <use x="428.222656" xlink:href="#DejaVuSans-7c"/>
      <use x="461.914062" xlink:href="#DejaVuSans-49"/>
      <use x="491.40625" xlink:href="#DejaVuSans-29"/>
     </g>
    </g>
    <g id="patch_8">
     <path d="M 47.55 42.398438 
L 67.55 42.398438 
L 67.55 35.398438 
L 47.55 35.398438 
z
" style="fill:#0d0887;fill-opacity:0.5;stroke:#0d0887;stroke-linejoin:miter;stroke-opacity:0.5;"/>
    </g>
    <g id="text_11">
     <!-- t = 1 -->
     <g transform="translate(75.55 42.398438)scale(0.1 -0.1)">
      <defs>
       <path d="M 1172 4494 
L 1172 3500 
L 2356 3500 
L 2356 3053 
L 1172 3053 
L 1172 1153 
Q 1172 725 1289 603 
Q 1406 481 1766 481 
L 2356 481 
L 2356 0 
L 1766 0 
Q 1100 0 847 248 
Q 594 497 594 1153 
L 594 3053 
L 172 3053 
L 172 3500 
L 594 3500 
L 594 4494 
L 1172 4494 
z
" id="DejaVuSans-74" transform="scale(0.015625)"/>
       <path d="M 678 2906 
L 4684 2906 
L 4684 2381 
L 678 2381 
L 678 2906 
z
M 678 1631 
L 4684 1631 
L 4684 1100 
L 678 1100 
L 678 1631 
z
" id="DejaVuSans-3d" transform="scale(0.015625)"/>
      </defs>
      <use xlink:href="#DejaVuSans-74"/>
      <use x="39.208984" xlink:href="#DejaVuSans-20"/>
      <use x="70.996094" xlink:href="#DejaVuSans-3d"/>
      <use x="154.785156" xlink:href="#DejaVuSans-20"/>
      <use x="186.572266" xlink:href="#DejaVuSans-31"/>
     </g>
    </g>
    <g id="patch_9">
     <path d="M 47.55 57.076563 
L 67.55 57.076563 
L 67.55 50.076563 
L 47.55 50.076563 
z
" style="fill:#9c179e;fill-opacity:0.5;stroke:#9c179e;stroke-linejoin:miter;stroke-opacity:0.5;"/>
    </g>
    <g id="text_12">
     <!-- t = 5 -->
     <g transform="translate(75.55 57.076563)scale(0.1 -0.1)">
      <defs>
       <path d="M 691 4666 
L 3169 4666 
L 3169 4134 
L 1269 4134 
L 1269 2991 
Q 1406 3038 1543 3061 
Q 1681 3084 1819 3084 
Q 2600 3084 3056 2656 
Q 3513 2228 3513 1497 
Q 3513 744 3044 326 
Q 2575 -91 1722 -91 
Q 1428 -91 1123 -41 
Q 819 9 494 109 
L 494 744 
Q 775 591 1075 516 
Q 1375 441 1709 441 
Q 2250 441 2565 725 
Q 2881 1009 2881 1497 
Q 2881 1984 2565 2268 
Q 2250 2553 1709 2553 
Q 1456 2553 1204 2497 
Q 953 2441 691 2322 
L 691 4666 
z
" id="DejaVuSans-35" transform="scale(0.015625)"/>
      </defs>
      <use xlink:href="#DejaVuSans-74"/>
      <use x="39.208984" xlink:href="#DejaVuSans-20"/>
      <use x="70.996094" xlink:href="#DejaVuSans-3d"/>
      <use x="154.785156" xlink:href="#DejaVuSans-20"/>
      <use x="186.572266" xlink:href="#DejaVuSans-35"/>
     </g>
    </g>
    <g id="patch_10">
     <path d="M 47.55 71.754688 
L 67.55 71.754688 
L 67.55 64.754688 
L 47.55 64.754688 
z
" style="fill:#ed7953;fill-opacity:0.5;stroke:#ed7953;stroke-linejoin:miter;stroke-opacity:0.5;"/>
    </g>
    <g id="text_13">
     <!-- t = 10 -->
     <g transform="translate(75.55 71.754688)scale(0.1 -0.1)">
      <use xlink:href="#DejaVuSans-74"/>
      <use x="39.208984" xlink:href="#DejaVuSans-20"/>
      <use x="70.996094" xlink:href="#DejaVuSans-3d"/>
      <use x="154.785156" xlink:href="#DejaVuSans-20"/>
      <use x="186.572266" xlink:href="#DejaVuSans-31"/>
      <use x="250.195312" xlink:href="#DejaVuSans-30"/>
     </g>
    </g>
    <g id="line2d_11">
     <path d="M 47.55 82.932813 
L 67.55 82.932813 
" style="fill:none;stroke:#000000;stroke-dasharray:5.55,2.4;stroke-dashoffset:0;stroke-width:1.5;"/>
    </g>
    <g id="text_14">
     <!-- true s -->
     <g transform="translate(75.55 86.432813)scale(0.1 -0.1)">
      <defs>
       <path d="M 544 1381 
L 544 3500 
L 1119 3500 
L 1119 1403 
Q 1119 906 1312 657 
Q 1506 409 1894 409 
Q 2359 409 2629 706 
Q 2900 1003 2900 1516 
L 2900 3500 
L 3475 3500 
L 3475 0 
L 2900 0 
L 2900 538 
Q 2691 219 2414 64 
Q 2138 -91 1772 -91 
Q 1169 -91 856 284 
Q 544 659 544 1381 
z
M 1991 3584 
L 1991 3584 
z
" id="DejaVuSans-75" transform="scale(0.015625)"/>
      </defs>
      <use xlink:href="#DejaVuSans-74"/>
      <use x="39.208984" xlink:href="#DejaVuSans-72"/>
      <use x="80.322266" xlink:href="#DejaVuSans-75"/>
      <use x="143.701172" xlink:href="#DejaVuSans-65"/>
      <use x="205.224609" xlink:href="#DejaVuSans-20"/>
      <use x="237.011719" xlink:href="#DejaVuSans-73"/>
     </g>
    </g>
   </g>
  </g>
 </g>
 <defs>
  <clipPath id="p6655677138">
   <rect height="163.4" width="230.7125" x="38.55" y="10.8"/>
  </clipPath>
 </defs>
</svg>
